# xmcd
# 
# Track frame offsets:
#     150
#     15609
#     27247
#     40001
#     54682
#     66155
#     80402
#     91480
#     105384
#     115454
#     126972
#     139285
#     155936
#     170504
# 
# Disc length: 2448
# 
# Revision: 5
# Processed by: cddbd v1.5.2PL0 Copyright (c) Steve Scherf et al.
# Submitted via: BonkEnc v1.0
# 
DISCID=c1098e0e
DTITLE=Teodoro and Sampaio - Virus da Paixão
DYEAR=0
DGENRE=Country
TTITLE0=A Solteirona
TTITLE1=Amigo Descarado
TTITLE2=Vírus da Paixão
TTITLE3=A Empregada
TTITLE4=Whisky com Guaraná
TTITLE5=Tadinha da Minha Secretária
TTITLE6=Silicone
TTITLE7=Já Fui Bom Nisso
TTITLE8=Menino Sapeca
TTITLE9=O Beijo do Adeus
TTITLE10=Cachorro Louco
TTITLE11=Sou da Turma do Chapéu - Part. Marco Brasil
TTITLE12=Fogo no Rabo
TTITLE13=Paixão em Dose Dupla
EXTD=
EXTT0=
EXTT1=
EXTT2=
EXTT3=
EXTT4=
EXTT5=
EXTT6=
EXTT7=
EXTT8=
EXTT9=
EXTT10=
EXTT11=
EXTT12=
EXTT13=
PLAYORDER=
